<svg xmlns="http://www.w3.org/2000/svg" width="200" height="40" viewBox="0 0 200 40" role="img" aria-label="PixBooth logo">
  <defs>
    <linearGradient id="g" x1="0" y1="0" x2="1" y2="1">
      <stop offset="0" stop-color="#cc857f"/>
      <stop offset="1" stop-color="#595880"/>
    </linearGradient>
  </defs>
  <rect x="0" y="0" width="200" height="40" rx="8" fill="#fff"/>
  <g transform="translate(10, 10)">
    <rect x="0" y="0" width="20" height="20" rx="4" fill="url(#g)"/>
    <circle cx="10" cy="10" r="5" fill="#fff" opacity="0.9"/>
    <g transform="translate(28, 3)" fill="#595880">
      <path d="M0 0h8c3 0 5 2 5 5s-2 5-5 5H3v7H0V0zm3 8h4c2 0 3-1 3-3s-1-3-3-3H3v6z"/>
      <path d="M16 0h3v7l6-7h3l-5 6 5 8h-3l-4-6-2 2v4h-3V0z"/>
      <path d="M32 0h3v15h-3V0z"/>
      <path d="M38 5c0-3 2-5 6-5s6 2 6 5v5c0 3-2 5-6 5s-6-2-6-5V5zm3 5c0 2 1 3 3 3s3-1 3-3V5c0-2-1-3-3-3s-3 1-3 3v5z"/>
      <path d="M54 0h3v6h6V0h3v15h-3v-6h-6v6h-3V0z"/>
    </g>
  </g>
</svg>
